<svg width="265" height="108" viewBox="0 0 265 108" fill="none" xmlns="http://www.w3.org/2000/svg">
<g filter="url(#filter0_d_2_6)">
<rect x="4.5" y="0.5" width="139" height="99" rx="11.5" fill="#EAD637" stroke="black"/>
<rect x="121.5" y="13.5" width="139" height="73" rx="11.5" fill="#C589E8" stroke="black"/>
<mask id="path-3-outside-1_2_6" maskUnits="userSpaceOnUse" x="32" y="31" width="223" height="38" fill="black">
<rect fill="white" x="32" y="31" width="223" height="38"/>
<path d="M46.6 33.304C50.152 33.304 53.256 34.008 55.912 35.416C58.568 36.824 60.616 38.808 62.056 41.368C63.528 43.896 64.264 46.824 64.264 50.152C64.264 53.448 63.528 56.376 62.056 58.936C60.616 61.496 58.552 63.48 55.864 64.888C53.208 66.296 50.12 67 46.6 67H33.976V33.304H46.6ZM46.072 59.896C49.176 59.896 51.592 59.048 53.32 57.352C55.048 55.656 55.912 53.256 55.912 50.152C55.912 47.048 55.048 44.632 53.32 42.904C51.592 41.176 49.176 40.312 46.072 40.312H42.184V59.896H46.072ZM77.059 39.88V46.696H88.051V53.032H77.059V60.424H89.491V67H68.851V33.304H89.491V39.88H77.059ZM126.452 33.304L114.5 67H104.228L92.2758 33.304H101.012L109.364 58.744L117.764 33.304H126.452ZM133.722 67.384C132.282 67.384 131.098 66.968 130.17 66.136C129.274 65.272 128.826 64.216 128.826 62.968C128.826 61.688 129.274 60.616 130.17 59.752C131.098 58.888 132.282 58.456 133.722 58.456C135.13 58.456 136.282 58.888 137.178 59.752C138.106 60.616 138.57 61.688 138.57 62.968C138.57 64.216 138.106 65.272 137.178 66.136C136.282 66.968 135.13 67.384 133.722 67.384ZM151.637 33.304V67H143.429V33.304H151.637ZM187.729 67H179.521L165.793 46.216V67H157.585V33.304H165.793L179.521 54.184V33.304H187.729V67ZM215.615 33.304V39.88H201.887V46.984H212.159V53.368H201.887V67H193.679V33.304H215.615ZM235.865 67.336C232.697 67.336 229.785 66.6 227.129 65.128C224.505 63.656 222.409 61.608 220.841 58.984C219.305 56.328 218.537 53.352 218.537 50.056C218.537 46.76 219.305 43.8 220.841 41.176C222.409 38.552 224.505 36.504 227.129 35.032C229.785 33.56 232.697 32.824 235.865 32.824C239.033 32.824 241.929 33.56 244.553 35.032C247.209 36.504 249.289 38.552 250.793 41.176C252.329 43.8 253.097 46.76 253.097 50.056C253.097 53.352 252.329 56.328 250.793 58.984C249.257 61.608 247.177 63.656 244.553 65.128C241.929 66.6 239.033 67.336 235.865 67.336ZM235.865 59.848C238.553 59.848 240.697 58.952 242.297 57.16C243.929 55.368 244.745 53 244.745 50.056C244.745 47.08 243.929 44.712 242.297 42.952C240.697 41.16 238.553 40.264 235.865 40.264C233.145 40.264 230.969 41.144 229.337 42.904C227.737 44.664 226.937 47.048 226.937 50.056C226.937 53.032 227.737 55.416 229.337 57.208C230.969 58.968 233.145 59.848 235.865 59.848Z"/>
</mask>
<path d="M46.6 33.304C50.152 33.304 53.256 34.008 55.912 35.416C58.568 36.824 60.616 38.808 62.056 41.368C63.528 43.896 64.264 46.824 64.264 50.152C64.264 53.448 63.528 56.376 62.056 58.936C60.616 61.496 58.552 63.48 55.864 64.888C53.208 66.296 50.12 67 46.6 67H33.976V33.304H46.6ZM46.072 59.896C49.176 59.896 51.592 59.048 53.32 57.352C55.048 55.656 55.912 53.256 55.912 50.152C55.912 47.048 55.048 44.632 53.32 42.904C51.592 41.176 49.176 40.312 46.072 40.312H42.184V59.896H46.072ZM77.059 39.88V46.696H88.051V53.032H77.059V60.424H89.491V67H68.851V33.304H89.491V39.88H77.059ZM126.452 33.304L114.5 67H104.228L92.2758 33.304H101.012L109.364 58.744L117.764 33.304H126.452ZM133.722 67.384C132.282 67.384 131.098 66.968 130.17 66.136C129.274 65.272 128.826 64.216 128.826 62.968C128.826 61.688 129.274 60.616 130.17 59.752C131.098 58.888 132.282 58.456 133.722 58.456C135.13 58.456 136.282 58.888 137.178 59.752C138.106 60.616 138.57 61.688 138.57 62.968C138.57 64.216 138.106 65.272 137.178 66.136C136.282 66.968 135.13 67.384 133.722 67.384ZM151.637 33.304V67H143.429V33.304H151.637ZM187.729 67H179.521L165.793 46.216V67H157.585V33.304H165.793L179.521 54.184V33.304H187.729V67ZM215.615 33.304V39.88H201.887V46.984H212.159V53.368H201.887V67H193.679V33.304H215.615ZM235.865 67.336C232.697 67.336 229.785 66.6 227.129 65.128C224.505 63.656 222.409 61.608 220.841 58.984C219.305 56.328 218.537 53.352 218.537 50.056C218.537 46.76 219.305 43.8 220.841 41.176C222.409 38.552 224.505 36.504 227.129 35.032C229.785 33.56 232.697 32.824 235.865 32.824C239.033 32.824 241.929 33.56 244.553 35.032C247.209 36.504 249.289 38.552 250.793 41.176C252.329 43.8 253.097 46.76 253.097 50.056C253.097 53.352 252.329 56.328 250.793 58.984C249.257 61.608 247.177 63.656 244.553 65.128C241.929 66.6 239.033 67.336 235.865 67.336ZM235.865 59.848C238.553 59.848 240.697 58.952 242.297 57.16C243.929 55.368 244.745 53 244.745 50.056C244.745 47.08 243.929 44.712 242.297 42.952C240.697 41.16 238.553 40.264 235.865 40.264C233.145 40.264 230.969 41.144 229.337 42.904C227.737 44.664 226.937 47.048 226.937 50.056C226.937 53.032 227.737 55.416 229.337 57.208C230.969 58.968 233.145 59.848 235.865 59.848Z" fill="black"/>
<path d="M55.912 35.416L56.3804 34.5325L56.3804 34.5325L55.912 35.416ZM62.056 41.368L61.1844 41.8583L61.1881 41.8648L61.1918 41.8712L62.056 41.368ZM62.056 58.936L61.1891 58.4375L61.1844 58.4457L62.056 58.936ZM55.864 64.888L55.4 64.0022L55.3956 64.0045L55.864 64.888ZM33.976 67H32.976V68H33.976V67ZM33.976 33.304V32.304H32.976V33.304H33.976ZM42.184 40.312V39.312H41.184V40.312H42.184ZM42.184 59.896H41.184V60.896H42.184V59.896ZM46.6 34.304C50.0183 34.304 52.956 34.9808 55.4436 36.2995L56.3804 34.5325C53.556 33.0352 50.2857 32.304 46.6 32.304V34.304ZM55.4436 36.2995C57.9345 37.62 59.8407 39.4694 61.1844 41.8583L62.9276 40.8777C61.3913 38.1466 59.2015 36.028 56.3804 34.5325L55.4436 36.2995ZM61.1918 41.8712C62.5632 44.2263 63.264 46.976 63.264 50.152H65.264C65.264 46.672 64.4928 43.5657 62.9202 40.8648L61.1918 41.8712ZM63.264 50.152C63.264 53.2938 62.5641 56.0462 61.1891 58.4375L62.9229 59.4345C64.4919 56.7058 65.264 53.6022 65.264 50.152H63.264ZM61.1844 58.4457C59.8425 60.8315 57.9228 62.6807 55.4 64.0022L56.328 65.7738C59.1813 64.2793 61.3895 62.1605 62.9276 59.4263L61.1844 58.4457ZM55.3956 64.0045C52.9067 65.3239 49.9847 66 46.6 66V68C50.2553 68 53.5093 67.2681 56.3324 65.7715L55.3956 64.0045ZM46.6 66H33.976V68H46.6V66ZM34.976 67V33.304H32.976V67H34.976ZM33.976 34.304H46.6V32.304H33.976V34.304ZM46.072 60.896C49.3608 60.896 52.0568 59.9929 54.0205 58.0657L52.6195 56.6383C51.1272 58.1031 48.9912 58.896 46.072 58.896V60.896ZM54.0205 58.0657C55.9902 56.1324 56.912 53.4449 56.912 50.152H54.912C54.912 53.0671 54.1058 55.1796 52.6195 56.6383L54.0205 58.0657ZM56.912 50.152C56.912 46.8581 55.9899 44.1597 54.0271 42.1969L52.6129 43.6111C54.1061 45.1043 54.912 47.2379 54.912 50.152H56.912ZM54.0271 42.1969C52.0643 40.2341 49.3659 39.312 46.072 39.312V41.312C48.9861 41.312 51.1197 42.1179 52.6129 43.6111L54.0271 42.1969ZM46.072 39.312H42.184V41.312H46.072V39.312ZM41.184 40.312V59.896H43.184V40.312H41.184ZM42.184 60.896H46.072V58.896H42.184V60.896ZM77.059 39.88V38.88H76.059V39.88H77.059ZM77.059 46.696H76.059V47.696H77.059V46.696ZM88.051 46.696H89.051V45.696H88.051V46.696ZM88.051 53.032V54.032H89.051V53.032H88.051ZM77.059 53.032V52.032H76.059V53.032H77.059ZM77.059 60.424H76.059V61.424H77.059V60.424ZM89.491 60.424H90.491V59.424H89.491V60.424ZM89.491 67V68H90.491V67H89.491ZM68.851 67H67.851V68H68.851V67ZM68.851 33.304V32.304H67.851V33.304H68.851ZM89.491 33.304H90.491V32.304H89.491V33.304ZM89.491 39.88V40.88H90.491V39.88H89.491ZM76.059 39.88V46.696H78.059V39.88H76.059ZM77.059 47.696H88.051V45.696H77.059V47.696ZM87.051 46.696V53.032H89.051V46.696H87.051ZM88.051 52.032H77.059V54.032H88.051V52.032ZM76.059 53.032V60.424H78.059V53.032H76.059ZM77.059 61.424H89.491V59.424H77.059V61.424ZM88.491 60.424V67H90.491V60.424H88.491ZM89.491 66H68.851V68H89.491V66ZM69.851 67V33.304H67.851V67H69.851ZM68.851 34.304H89.491V32.304H68.851V34.304ZM88.491 33.304V39.88H90.491V33.304H88.491ZM89.491 38.88H77.059V40.88H89.491V38.88ZM126.452 33.304L127.394 33.6383L127.867 32.304H126.452V33.304ZM114.5 67V68H115.206L115.442 67.3343L114.5 67ZM104.228 67L103.285 67.3343L103.521 68H104.228V67ZM92.2758 33.304V32.304H90.86L91.3333 33.6383L92.2758 33.304ZM101.012 33.304L101.962 32.9921L101.736 32.304H101.012V33.304ZM109.364 58.744L108.414 59.0559L109.361 61.9416L110.313 59.0575L109.364 58.744ZM117.764 33.304V32.304H117.041L116.814 32.9905L117.764 33.304ZM125.509 32.9697L113.557 66.6657L115.442 67.3343L127.394 33.6383L125.509 32.9697ZM114.5 66H104.228V68H114.5V66ZM105.17 66.6657L93.2182 32.9697L91.3333 33.6383L103.285 67.3343L105.17 66.6657ZM92.2758 34.304H101.012V32.304H92.2758V34.304ZM100.062 33.6159L108.414 59.0559L110.314 58.4321L101.962 32.9921L100.062 33.6159ZM110.313 59.0575L118.713 33.6175L116.814 32.9905L108.414 58.4305L110.313 59.0575ZM117.764 34.304H126.452V32.304H117.764V34.304ZM130.17 66.136L129.476 66.8558L129.489 66.8684L129.503 66.8806L130.17 66.136ZM130.17 59.752L129.489 59.0201L129.482 59.0261L129.476 59.0322L130.17 59.752ZM137.178 59.752L136.484 60.4718L136.49 60.4779L136.497 60.4839L137.178 59.752ZM137.178 66.136L137.859 66.8688L137.86 66.8679L137.178 66.136ZM133.722 66.384C132.488 66.384 131.554 66.0336 130.838 65.3914L129.503 66.8806C130.642 67.9024 132.077 68.384 133.722 68.384V66.384ZM130.864 65.4162C130.164 64.7412 129.826 63.9453 129.826 62.968H127.826C127.826 64.4867 128.384 65.8028 129.476 66.8558L130.864 65.4162ZM129.826 62.968C129.826 61.9509 130.17 61.1414 130.864 60.4718L129.476 59.0322C128.379 60.0906 127.826 61.4251 127.826 62.968H129.826ZM130.852 60.4839C131.569 59.8158 132.498 59.456 133.722 59.456V57.456C132.066 57.456 130.627 57.9602 129.489 59.0201L130.852 60.4839ZM133.722 59.456C134.908 59.456 135.799 59.8116 136.484 60.4718L137.872 59.0322C136.765 57.9644 135.352 57.456 133.722 57.456V59.456ZM136.497 60.4839C137.219 61.1567 137.57 61.9626 137.57 62.968H139.57C139.57 61.4134 138.993 60.0753 137.86 59.0201L136.497 60.4839ZM137.57 62.968C137.57 63.9334 137.225 64.7258 136.497 65.4041L137.86 66.8679C138.987 65.8182 139.57 64.4986 139.57 62.968H137.57ZM136.498 65.4032C135.815 66.0375 134.919 66.384 133.722 66.384V68.384C135.342 68.384 136.75 67.8985 137.859 66.8688L136.498 65.4032ZM151.637 33.304H152.637V32.304H151.637V33.304ZM151.637 67V68H152.637V67H151.637ZM143.429 67H142.429V68H143.429V67ZM143.429 33.304V32.304H142.429V33.304H143.429ZM150.637 33.304V67H152.637V33.304H150.637ZM151.637 66H143.429V68H151.637V66ZM144.429 67V33.304H142.429V67H144.429ZM143.429 34.304H151.637V32.304H143.429V34.304ZM187.729 67V68H188.729V67H187.729ZM179.521 67L178.687 67.5511L178.983 68H179.521V67ZM165.793 46.216L166.628 45.6649L164.793 42.8876V46.216H165.793ZM165.793 67V68H166.793V67H165.793ZM157.585 67H156.585V68H157.585V67ZM157.585 33.304V32.304H156.585V33.304H157.585ZM165.793 33.304L166.629 32.7546L166.333 32.304H165.793V33.304ZM179.521 54.184L178.686 54.7334L180.521 57.5252V54.184H179.521ZM179.521 33.304V32.304H178.521V33.304H179.521ZM187.729 33.304H188.729V32.304H187.729V33.304ZM187.729 66H179.521V68H187.729V66ZM180.356 66.4489L166.628 45.6649L164.959 46.7671L178.687 67.5511L180.356 66.4489ZM164.793 46.216V67H166.793V46.216H164.793ZM165.793 66H157.585V68H165.793V66ZM158.585 67V33.304H156.585V67H158.585ZM157.585 34.304H165.793V32.304H157.585V34.304ZM164.958 33.8534L178.686 54.7334L180.357 53.6346L166.629 32.7546L164.958 33.8534ZM180.521 54.184V33.304H178.521V54.184H180.521ZM179.521 34.304H187.729V32.304H179.521V34.304ZM186.729 33.304V67H188.729V33.304H186.729ZM215.615 33.304H216.615V32.304H215.615V33.304ZM215.615 39.88V40.88H216.615V39.88H215.615ZM201.887 39.88V38.88H200.887V39.88H201.887ZM201.887 46.984H200.887V47.984H201.887V46.984ZM212.159 46.984H213.159V45.984H212.159V46.984ZM212.159 53.368V54.368H213.159V53.368H212.159ZM201.887 53.368V52.368H200.887V53.368H201.887ZM201.887 67V68H202.887V67H201.887ZM193.679 67H192.679V68H193.679V67ZM193.679 33.304V32.304H192.679V33.304H193.679ZM214.615 33.304V39.88H216.615V33.304H214.615ZM215.615 38.88H201.887V40.88H215.615V38.88ZM200.887 39.88V46.984H202.887V39.88H200.887ZM201.887 47.984H212.159V45.984H201.887V47.984ZM211.159 46.984V53.368H213.159V46.984H211.159ZM212.159 52.368H201.887V54.368H212.159V52.368ZM200.887 53.368V67H202.887V53.368H200.887ZM201.887 66H193.679V68H201.887V66ZM194.679 67V33.304H192.679V67H194.679ZM193.679 34.304H215.615V32.304H193.679V34.304ZM227.129 65.128L226.64 66.0002L226.644 66.0027L227.129 65.128ZM220.841 58.984L219.975 59.4846L219.979 59.4908L219.983 59.497L220.841 58.984ZM220.841 41.176L219.983 40.663L219.978 40.6708L220.841 41.176ZM227.129 35.032L226.644 34.1573L226.64 34.1599L227.129 35.032ZM244.553 35.032L244.064 35.9042L244.068 35.9067L244.553 35.032ZM250.793 41.176L249.925 41.6733L249.93 41.6812L250.793 41.176ZM250.793 58.984L251.656 59.4892L251.659 59.4846L250.793 58.984ZM244.553 65.128L245.042 66.0001L245.042 66.0001L244.553 65.128ZM242.297 57.16L241.558 56.4866L241.551 56.494L242.297 57.16ZM242.297 42.952L241.551 43.618L241.557 43.625L241.564 43.6319L242.297 42.952ZM229.337 42.904L228.604 42.224L228.597 42.2313L229.337 42.904ZM229.337 57.208L228.591 57.874L228.597 57.881L228.604 57.8879L229.337 57.208ZM235.865 66.336C232.859 66.336 230.115 65.6395 227.614 64.2533L226.644 66.0027C229.455 67.5605 232.535 68.336 235.865 68.336V66.336ZM227.618 64.2559C225.149 62.8707 223.179 60.9476 221.7 58.471L219.983 59.497C221.639 62.2684 223.861 64.4413 226.64 66.0001L227.618 64.2559ZM221.707 58.4834C220.265 55.9908 219.537 53.1897 219.537 50.056H217.537C217.537 53.5143 218.345 56.6652 219.975 59.4846L221.707 58.4834ZM219.537 50.056C219.537 46.9222 220.265 44.1392 221.704 41.6812L219.978 40.6708C218.345 43.4608 217.537 46.5978 217.537 50.056H219.537ZM221.7 41.689C223.179 39.2124 225.149 37.2893 227.618 35.9041L226.64 34.1599C223.861 35.7187 221.639 37.8916 219.983 40.663L221.7 41.689ZM227.614 35.9067C230.115 34.5205 232.859 33.824 235.865 33.824V31.824C232.535 31.824 229.455 32.5995 226.644 34.1573L227.614 35.9067ZM235.865 33.824C238.871 33.824 241.597 34.5205 244.064 35.9041L245.042 34.1599C242.261 32.5995 239.195 31.824 235.865 31.824V33.824ZM244.068 35.9067C246.565 37.2905 248.513 39.2083 249.926 41.6733L251.661 40.6787C250.066 37.8957 247.853 35.7175 245.038 34.1573L244.068 35.9067ZM249.93 41.6812C251.369 44.1392 252.097 46.9222 252.097 50.056H254.097C254.097 46.5978 253.289 43.4608 251.656 40.6708L249.93 41.6812ZM252.097 50.056C252.097 53.1897 251.369 55.9908 249.927 58.4834L251.659 59.4846C253.289 56.6652 254.097 53.5143 254.097 50.056H252.097ZM249.93 58.4788C248.483 60.9512 246.531 62.8718 244.064 64.2559L245.042 66.0001C247.823 64.4402 250.031 62.2648 251.656 59.4892L249.93 58.4788ZM244.064 64.2559C241.597 65.6395 238.871 66.336 235.865 66.336V68.336C239.195 68.336 242.261 67.5605 245.042 66.0001L244.064 64.2559ZM235.865 60.848C238.8 60.848 241.23 59.8571 243.043 57.826L241.551 56.494C240.165 58.0469 238.306 58.848 235.865 58.848V60.848ZM243.036 57.8333C244.871 55.8195 245.745 53.1929 245.745 50.056H243.745C243.745 52.8071 242.988 54.9165 241.558 56.4867L243.036 57.8333ZM245.745 50.056C245.745 46.8912 244.873 44.2587 243.03 42.2721L241.564 43.6319C242.986 45.1653 243.745 47.2688 243.745 50.056H245.745ZM243.043 42.286C241.23 40.2549 238.8 39.264 235.865 39.264V41.264C238.306 41.264 240.165 42.0651 241.551 43.618L243.043 42.286ZM235.865 39.264C232.908 39.264 230.451 40.2318 228.604 42.2241L230.07 43.5839C231.487 42.0562 233.383 41.264 235.865 41.264V39.264ZM228.597 42.2313C226.789 44.2203 225.937 46.8675 225.937 50.056H227.937C227.937 47.2285 228.685 45.1077 230.077 43.5767L228.597 42.2313ZM225.937 50.056C225.937 53.2166 226.791 55.8578 228.591 57.874L230.083 56.542C228.683 54.9742 227.937 52.8474 227.937 50.056H225.937ZM228.604 57.8879C230.451 59.8802 232.908 60.848 235.865 60.848V58.848C233.383 58.848 231.487 58.0558 230.07 56.5281L228.604 57.8879Z" fill="black" mask="url(#path-3-outside-1_2_6)"/>
</g>
<defs>
<filter id="filter0_d_2_6" x="0" y="0" width="265" height="108" filterUnits="userSpaceOnUse" color-interpolation-filters="sRGB">
<feFlood flood-opacity="0" result="BackgroundImageFix"/>
<feColorMatrix in="SourceAlpha" type="matrix" values="0 0 0 0 0 0 0 0 0 0 0 0 0 0 0 0 0 0 127 0" result="hardAlpha"/>
<feOffset dy="4"/>
<feGaussianBlur stdDeviation="2"/>
<feComposite in2="hardAlpha" operator="out"/>
<feColorMatrix type="matrix" values="0 0 0 0 0 0 0 0 0 0 0 0 0 0 0 0 0 0 0.61 0"/>
<feBlend mode="normal" in2="BackgroundImageFix" result="effect1_dropShadow_2_6"/>
<feBlend mode="normal" in="SourceGraphic" in2="effect1_dropShadow_2_6" result="shape"/>
</filter>
</defs>
</svg>
